<?xml version="1.0" encoding="utf-8"?>
<!-- Generator: Adobe Illustrator 16.0.0, SVG Export Plug-In . SVG Version: 6.00 Build 0)  -->
<!DOCTYPE svg PUBLIC "-//W3C//DTD SVG 1.1//EN" "http://www.w3.org/Graphics/SVG/1.1/DTD/svg11.dtd">
<svg version="1.1" id="Layer_1" xmlns="http://www.w3.org/2000/svg" xmlns:xlink="http://www.w3.org/1999/xlink" x="0px" y="0px"
	 width="450px" height="100px" viewBox="0 0 450 100" enable-background="new 0 0 450 100" xml:space="preserve">
<g>
	<g>
		<path fill="#FFFFFF" d="M11.236,10.088V9.162h1.925v0.926v68.993v0.925h-1.925v-0.925V10.088z"/>
		<path fill="#FFFFFF" d="M34.026,21.192h-0.963v-1.851h0.963h0.107h0.962v1.851h-0.962H34.026z M33.063,31.577v-0.925h1.926v0.925
			v47.504v0.925h-1.926v-0.925V31.577z"/>
		<path fill="#FFFFFF" d="M86.885,43.402h-1.926c0-6.169-7.49-10.899-16.051-10.899c-8.56,0-16.051,4.73-16.051,10.899
			c0,11.824,36.061,10.178,35.954,23.958c0,6.785-8.561,12.646-19.903,12.646c-11.342,0-19.902-5.861-19.902-12.646h1.926
			c0,6.168,8.346,10.796,17.977,10.796c9.631,0,17.977-4.628,17.977-10.796c0-12.03-35.847-10.18-35.954-23.958
			c0-6.992,7.918-12.75,17.977-12.75S86.885,36.41,86.885,43.402z"/>
		<path fill="#FFFFFF" d="M106.678,32.502v34.651c0.107,7.198,5.67,11.002,15.409,11.002h0.963v1.851h-0.963
			c-11.236,0-17.229-4.626-17.334-12.853V32.502h-8.561h-0.963v-1.851h0.963h8.561V19.855V18.93h1.926v0.925v10.797h15.409h0.963
			v1.851h-0.963H106.678z"/>
		<path fill="#FFFFFF" d="M135.887,21.192h-0.964v-1.851h0.964h0.107h0.963v1.851h-0.963H135.887z M134.923,31.577v-0.925h1.927
			v0.925v47.504v0.925h-1.927v-0.925V31.577z"/>
		<path fill="#FFFFFF" d="M195.809,79.081l0.107,1.028h-1.819l-0.107-0.927l-0.106-27.863c0-10.385-8.24-18.817-18.405-18.817
			c-10.166,0-18.405,8.432-18.405,18.817v0.925v26.837v0.925h-1.926v-0.925V52.244v-0.925V31.577v-0.925h1.926v0.925v10.947
			c3.249-7.015,10.265-11.873,18.405-11.873c11.236,0,20.331,9.254,20.331,20.667V79.081z"/>
		<path fill="#FFFFFF" d="M208.645,55.329c0-13.676,10.594-24.677,23.542-24.677c9.649,0,17.991,6.111,21.616,14.885V31.577v-0.823
			h2.139l-0.106,0.926l-0.109,47.401c0,7.813-8.986,18.816-23.433,18.919h-0.962v-1.851h0.962
			c12.947-0.104,21.51-9.872,21.51-17.068v-13.96c-3.625,8.774-11.967,14.885-21.616,14.885
			C219.239,80.006,208.645,69.005,208.645,55.329z M210.572,55.329c0,12.646,9.737,22.826,21.615,22.826
			c11.878,0,21.616-10.18,21.616-22.826c0-12.647-9.738-22.827-21.616-22.827C220.309,32.502,210.572,42.682,210.572,55.329z"/>
		<path fill="#FFFFFF" d="M277.875,32.502v34.651c0.106,7.198,5.671,11.002,15.407,11.002h0.964v1.851h-0.964
			c-11.234,0-17.228-4.626-17.334-12.853V32.502h-8.561h-0.963v-1.851h0.963h8.561V19.855V18.93h1.927v0.925v10.797h15.407h0.964
			v1.851h-0.964H277.875z"/>
		<path fill="#FFFFFF" d="M306.87,44.585c3.73-9.075,12.559-13.933,23.647-13.933h0.962v1.851h-0.962
			c-13.657,0-23.544,7.95-23.647,22.359v0.468v0.926v22.826v0.925h-1.927v-0.925V56.255v-0.926c0-0.156,0-0.312,0-0.467V31.577
			v-0.925h1.927v0.925V44.585z"/>
		<path fill="#FFFFFF" d="M336.828,55.329c0-13.676,10.593-24.677,23.542-24.677c12.947,0,23.54,11.001,23.54,24.677
			s-10.593,24.677-23.54,24.677C347.421,80.006,336.828,69.005,336.828,55.329z M338.755,55.329
			c0,12.646,9.736,22.826,21.615,22.826c11.878,0,21.615-10.18,21.615-22.826c0-12.647-9.737-22.827-21.615-22.827
			C348.491,32.502,338.755,42.682,338.755,55.329z"/>
		<path fill="#FFFFFF" d="M392.468,55.329c0-13.676,10.593-24.677,23.54-24.677s23.542,11.001,23.542,24.677
			s-10.595,24.677-23.542,24.677S392.468,69.005,392.468,55.329z M394.393,55.329c0,12.646,9.738,22.826,21.615,22.826
			c11.878,0,21.615-10.18,21.615-22.826c0-12.647-9.737-22.827-21.615-22.827C404.131,32.502,394.393,42.682,394.393,55.329z"/>
	</g>
	<path fill="#FFFFFF" d="M449.004,87.285H2V1.8h447.004V87.285z M3.351,85.935h444.303V3.15H3.351V85.935z"/>
</g>
</svg>
