<?xml version="1.0" encoding="utf-8"?>
<!-- Generator: Adobe Illustrator 16.0.0, SVG Export Plug-In . SVG Version: 6.00 Build 0)  -->
<!DOCTYPE svg PUBLIC "-//W3C//DTD SVG 1.1//EN" "http://www.w3.org/Graphics/SVG/1.1/DTD/svg11.dtd">
<svg version="1.1" id="Layer_1" xmlns="http://www.w3.org/2000/svg" xmlns:xlink="http://www.w3.org/1999/xlink" x="0px" y="0px"
	 width="235px" height="200px" viewBox="0 0 235 200" enable-background="new 0 0 235 200" xml:space="preserve">
<path fill="#3f98a4" d="M117.456,200c-1.961-1.831-3.319-2.99-4.555-4.268c-31.679-32.756-63.366-65.502-95.004-98.296
	C0.771,79.683-3.045,53.241,8.236,31.333C19.472,9.518,43.647-2.983,67.65,0.612c27.029,4.048,40.856,15.97,49.312,43.234
	c0.646-1.94,1.106-3.089,1.414-4.277c5.888-22.765,26.284-38.208,52.14-39.457c25.114-1.212,47.181,12.306,57.098,34.979
	c9.545,21.823,3.904,46.695-13.552,64.494c-30.624,31.226-60.823,62.87-91.184,94.354C121.071,195.812,119.402,197.817,117.456,200"
	/>
<rect fill="none" width="235" height="200"/>
</svg>
