<svg xmlns="http://www.w3.org/2000/svg" viewBox="0 0 94 18"><path fill="#767676" d="M66 3.6l1.3 3.7c.2.5.6.8 1.1.8h3L68.9 10c-.4.3-.6.8-.4 1.3l1 3.7-2.8-2.1c-.2-.2-.5-.2-.7-.2-.3 0-.5.1-.7.2L62.5 15l1-3.7c.1-.5 0-1-.4-1.3l-2.5-1.9h3c.5 0 1-.3 1.1-.8L66 3.6m-19 0l1.3 3.7c.2.5.6.8 1.1.8h3L49.9 10c-.4.3-.6.8-.4 1.3l1 3.7-2.8-2.1c-.2-.2-.5-.2-.7-.2s-.5.1-.7.2L43.5 15l1-3.7c.1-.5 0-1-.4-1.3l-2.5-1.9h3c.5 0 1-.3 1.1-.8L47 3.6m-19 0l1.3 3.7c.2.5.6.8 1.1.8h3L30.9 10c-.4.3-.6.8-.4 1.3l1 3.7-2.8-2.1c-.2-.2-.5-.2-.7-.2s-.5.1-.7.2L24.5 15l1-3.7c.1-.5 0-1-.4-1.3l-2.5-1.9h3c.5 0 1-.3 1.1-.8L28 3.6m-19 0l1.3 3.7c.2.5.6.8 1.1.8h3L11.9 10c-.4.3-.6.8-.4 1.3l1 3.7-2.8-2.1c-.2-.2-.5-.2-.7-.2s-.5.1-.7.2L5.5 15l1-3.7c.1-.5 0-1-.4-1.3L3.6 8.1h3c.5 0 1-.3 1.1-.8L9 3.6m76 0l1.3 3.7c.2.5.6.8 1.1.8h3L87.9 10c-.4.3-.6.8-.4 1.3l1 3.7-2.8-2.1c-.2-.2-.5-.2-.7-.2-.3 0-.5.1-.7.2L81.5 15l1-3.7c.1-.5 0-1-.4-1.3l-2.5-1.9h3c.5 0 1-.3 1.1-.8L85 3.6M85 0l-2.4 6.9H76l5.4 4-2 7.1 5.6-4.2 5.6 4.2-1.9-7.1 5.4-4h-6.6L85 0zM66 0l-2.4 6.9H57l5.4 4-2 7.1 5.6-4.2 5.6 4.2-1.9-7.1 5.4-4h-6.6L66 0zM47 0l-2.4 6.9H38l5.4 4-2 7.1 5.6-4.2 5.6 4.2-1.9-7.1 5.4-4h-6.6L47 0zM28 0l-2.4 6.9H19l5.4 4-2 7.1 5.6-4.2 5.6 4.2-1.9-7.1 5.4-4h-6.6L28 0zM9 0L6.6 6.9H0l5.4 4-2 7.1L9 13.8l5.6 4.2-1.9-7.1 5.4-4h-6.6L9 0z"/></svg>