<?xml version="1.0" encoding="utf-8"?>
<!-- Generator: Adobe Illustrator 19.2.1, SVG Export Plug-In . SVG Version: 6.00 Build 0)  -->
<svg version="1.1" id="Layer_1" xmlns="http://www.w3.org/2000/svg" xmlns:xlink="http://www.w3.org/1999/xlink" x="0px" y="0px"
	 viewBox="0 0 512 512" style="enable-background:new 0 0 512 512;" xml:space="preserve">
<style type="text/css">
	.st0{fill:#FFFFFF;}
</style>
<path class="st0" d="M0,269c0-8.3,0-16.7,0-25c1.3-7.3,2.5-14.7,4.1-22c3.1-14.1,13.1-21.9,27.5-22c6.8,0,13.7-0.1,20.5,0
	c2.8,0.1,4-0.9,5-3.6c5.2-13,10.5-25.8,16-38.6c1.2-2.7,1.2-4.5-1-6.6c-5.1-4.8-10-9.8-14.8-14.8c-9.9-10.3-11.3-22.5-3.8-34.6
	c12.4-20,28.8-36.1,48.9-48.3c11.9-7.3,24.2-5.7,34.2,4.1c4.9,4.8,9.7,9.6,14.4,14.5c2,2.1,3.7,2.4,6.5,1.2
	c12.6-5.5,25.4-10.8,38.2-15.7c3.3-1.3,4.3-2.8,4.2-6.1c-0.2-7-0.1-14,0-21C200.3,16.9,208.3,7,221.5,4c7.1-1.6,14.3-2.7,21.5-4
	c8.3,0,16.7,0,25,0c7.5,1.4,15,2.5,22.4,4.2c13.4,3,21.4,13.3,21.5,26.9c0,7,0.1,14,0,21c-0.1,2.7,0.8,4,3.5,5.1
	c12.8,5.1,25.5,10.4,38.2,15.9c3,1.3,5,1.4,7.4-1.1c5.3-5.5,10.7-11,16.4-16.1c9.2-8.3,21.4-9.2,31.9-2.8
	c20.1,12.4,36.3,28.6,48.7,48.6c7.9,12.6,6.5,24.8-3.9,35.4c-4.7,4.8-9.3,9.5-14.2,14.1c-2.4,2.2-2.3,4.1-1.1,7
	c5.5,12.6,10.8,25.4,15.8,38.2c1.1,2.9,2.5,3.8,5.4,3.8c7.2-0.1,14.3-0.1,21.5,0c13.5,0.3,23.5,8.3,26.4,21.5
	c1.6,7.1,2.7,14.3,4,21.5c0,8.3,0,16.7,0,25c-1.4,7.5-2.5,15-4.2,22.5c-3,13.4-13.2,21.4-26.9,21.5c-6.8,0.1-13.7,0.1-20.5,0
	c-3.1-0.1-4.6,0.8-5.8,3.9c-5,12.8-10.3,25.6-15.8,38.2c-1.3,3-0.9,4.8,1.3,7c5,4.8,10,9.8,14.8,14.9c9.7,10.2,10.9,22.3,3.5,34.2
	c-12.5,20-28.8,36.1-48.9,48.4c-11.9,7.3-24.2,5.8-34.2-4c-5-4.9-9.8-10-14.9-14.7c-1.2-1.1-4-1.6-5.5-1
	c-13.1,5.2-26.1,10.7-39.2,15.9c-2.8,1.1-3.8,2.5-3.8,5.5c0.2,7.2,0.1,14.3,0,21.5c-0.2,13.4-8.3,23.5-21.4,26.4
	c-7.1,1.6-14.3,2.7-21.5,4c-8,0-16,0-24,0c-7.8-1.4-15.7-2.5-23.5-4.2c-13.4-3-21.4-13.2-21.5-26.9c0-6.8-0.1-13.7,0.1-20.5
	c0.1-3.1-0.9-4.5-4-5.7c-12.8-5-25.6-10.3-38.2-15.8c-3-1.3-4.8-1-7,1.2c-4.5,4.7-9.1,9.2-13.8,13.8c-11.6,11.2-23.3,12.3-37,3.5
	C80.9,445,65.4,429,53.5,409.5c-7.2-11.8-5.8-24.3,4-34.2c4.8-4.9,9.6-9.8,14.5-14.4c2.4-2.2,2.4-4.1,1.1-7
	c-5.5-12.6-10.8-25.4-15.8-38.2c-1.1-2.8-2.4-3.9-5.3-3.9c-7.2,0.2-14.3,0.1-21.5,0C17,311.7,7,303.7,4,290.5
	C2.4,283.4,1.3,276.2,0,269z M468.9,220C468.9,220,468.9,220,468.9,220c-3,0-6,0-9,0c-12.8,0-19.9-5.8-24.3-18
	c-4.4-12.2-9.5-24.1-15-35.8c-4.5-9.6-3.6-20,3.8-27.6c5-5.1,10-10.2,15.2-15.2c3.7-3.6,4.1-7.3,1.3-11.6
	c-10.4-16.4-23.7-30-40.1-40.5c-5-3.2-7.7-2.9-11.9,1.2c-5.3,5.1-10.4,10.4-15.6,15.5c-6.5,6.2-17.3,8.3-23.9,5.4
	c-13.8-6.1-27.7-12.1-41.7-17.6c-9.2-3.6-15.3-11.3-15.5-21.2c-0.1-7.2,0-14.3,0-21.5c0-6.1-1.9-8.5-7.7-9.8c-19-4.2-38-4.3-57-0.1
	c-5.2,1.2-7.2,3.7-7.2,9.2c-0.1,7.5,0.1,15-0.1,22.5c-0.2,9.3-6.7,17.6-15.3,20.9c-13.3,5.2-26.5,10.6-39.6,16.3
	c-9.6,4.2-19.2,3-26.7-4.4c-5-4.9-9.9-9.9-14.9-14.8c-4.2-4.2-6.9-4.6-11.9-1.4C95.3,81.6,81.8,94.7,71.3,111
	c-3.5,5.4-3.2,8,1.5,12.7c5,5.1,10.2,10.1,15.1,15.3c6,6.3,8,17.2,5,24.1c-6,13.8-11.9,27.7-17.6,41.8C71.7,214.1,64,219.9,54,220
	c-7,0.1-14,0-21,0c-6.2,0-8.6,1.8-9.9,7.6c-4.2,19-4.4,38-0.2,57c1.1,5,4,7.4,9.1,7.4c7,0,14,0,21,0c11.7,0.1,19,6.1,23,17
	c4.6,12.5,9.7,24.7,15.3,36.8c4.6,9.9,3.5,20.2-4.2,28c-4.8,4.9-9.7,9.7-14.5,14.5c-4.3,4.3-4.7,6.9-1.6,11.9
	c10.4,16.5,23.7,30,40.1,40.5c5,3.2,7.7,2.9,12-1.3c5.2-5.1,10.3-10.4,15.6-15.5c7.2-6.9,16.9-8,25.9-4.1
	c13.1,5.7,26.3,11.2,39.6,16.4c9.7,3.8,15.6,11.5,15.7,22c0.1,6.8,0,13.7,0,20.5c0,6.4,1.8,8.7,8,10c18.7,4.1,37.3,4.3,56,0.2
	c5.9-1.3,7.9-3.6,7.9-9.6c0.1-7.3,0-14.7,0.1-22c0.2-9.9,7.1-18.2,16.3-21.5c12.5-4.5,24.8-9.5,36.9-15.1
	c11.4-5.3,20.6-4.3,29.6,4.6c4.6,4.6,9.2,9.1,13.7,13.8c3.5,3.7,7.2,4.3,11.6,1.5c16.6-10.4,30.3-23.9,40.9-40.4
	c2.8-4.3,2.5-8-1.2-11.6c-5.2-5.1-10.5-10.3-15.5-15.6c-7.5-7.9-8.2-17.8-3.6-27.7c5.6-12.2,10.7-24.7,15.4-37.3
	c3.4-9.3,11.6-16.2,21.5-16.3c7.5-0.1,15-0.1,22.5,0c4.7,0,7.5-2.2,8.6-6.7c4.6-19.6,4.7-39.3,0.2-58.9c-0.9-4-3.6-6.3-7.9-6.3
	C476.9,220,472.9,220,468.9,220z"/>
<path class="st0" d="M255.7,394.9c-76.6-0.2-138.9-62.8-138.7-139.3c0.2-76.4,62.8-138.8,138.9-138.5
	c77.2,0.2,139.2,62.8,138.9,140.1C394.6,332.9,331.8,395.1,255.7,394.9z M137,255.8c-0.1,65.7,53,119,118.6,119.2
	c65.6,0.1,119.2-53.1,119.3-118.5c0.1-66-53-119.3-118.9-119.4C190.5,136.9,137.1,190.3,137,255.8z"/>
</svg>
