<?xml version="1.0" encoding="utf-8"?>
<!-- Generator: Adobe Illustrator 19.2.1, SVG Export Plug-In . SVG Version: 6.00 Build 0)  -->
<svg version="1.1" id="Layer_1" xmlns="http://www.w3.org/2000/svg" xmlns:xlink="http://www.w3.org/1999/xlink" x="0px" y="0px"
	 viewBox="0 0 512 512" style="enable-background:new 0 0 512 512;" xml:space="preserve">
<style type="text/css">
	.st0{fill:#231F20;}
	.st1{fill:#FFFFFF;}
	.st2{fill:#FFFFFF;stroke:#929497;stroke-miterlimit:10;}
	.st3{fill:#1B75BB;}
</style>
<path class="st0" d="M384.5,254.6c0,72.5-58.8,131.3-131.3,131.3c-72.5,0-131.3-58.8-131.3-131.3c0-72.5,58.8-131.3,131.3-131.3
	C325.7,123.3,384.5,182.1,384.5,254.6z"/>
<path class="st0" d="M384.5,254.6c0,72.5-58.8,131.3-131.3,131.3c-72.5,0-131.3-58.8-131.3-131.3c0-72.5,58.8-131.3,131.3-131.3
	C325.7,123.3,384.5,182.1,384.5,254.6z"/>
<path class="st1" d="M254,0.6C113.7,0.6,0,114.4,0,254.6c0,140.3,113.7,254,254,254h254v-254C508,114.4,394.3,0.6,254,0.6z"/>
<path class="st2" d="M253.1,385.9c-72.5,0-131.3-58.8-131.3-131.3c0-72.5,58.8-131.3,131.3-131.3c72.5,0,131.3,58.8,131.3,131.3
	C384.5,327.1,325.7,385.9,253.1,385.9z"/>
<path class="st3" d="M384.5,254.6c0,72.5-58.8,131.3-131.3,131.3c-72.5,0-131.3-58.8-131.3-131.3c0-72.5,58.8-131.3,131.3-131.3
	C325.7,123.3,384.5,182.1,384.5,254.6z"/>
<g>
	<path class="st1" d="M264.6,170v75h72.1v19.1h-72.1v75.6h-20.4v-75.6h-72.1V245h72.1v-75H264.6z"/>
</g>
</svg>
