<?xml version="1.0" encoding="utf-8"?>
<!-- Generator: Adobe Illustrator 19.2.1, SVG Export Plug-In . SVG Version: 6.00 Build 0)  -->
<svg version="1.1" id="Layer_1" xmlns="http://www.w3.org/2000/svg" xmlns:xlink="http://www.w3.org/1999/xlink" x="0px" y="0px"
	 viewBox="0 0 512 512" style="enable-background:new 0 0 512 512;" xml:space="preserve">
<style type="text/css">
	.st0{fill:#FFFFFF;}
</style>
<g>
	<path class="st0" d="M309.5,252.4c37.6-48.1,74.9-95.9,112.9-144.4c-7.4-5.8-14.6-11.4-21.7-17c-1.8-1.4-4.2-2.4-5.1-4.2
		c-1.9-3.7-4.1-8-3.9-11.9c0.2-5.1,4.5-7.9,9.7-8.6c20.9-2.6,41.8-5.3,62.7-7.8c8.3-1,13,2.6,14.1,10.7c2.8,20.9,5.2,41.8,7.7,62.7
		c0.7,5.4-0.9,9.8-5.9,12.4c-5,2.7-9.4,1.3-13.7-2.1c-8.4-6.7-16.9-13.2-25.8-20.1c-8,10.2-15.7,20.1-23.4,29.9
		c-31.3,40.1-62.6,80.2-93.9,120.3c-7.7,9.9-12.4,10.5-22.4,2.8c-25.8-20.1-51.6-40.3-77.9-60.8c-7.6,9.7-15,19.1-22.4,28.6
		C150.2,307.2,99.8,371.7,49.5,436.1c-1.4,1.8-2.7,3.6-4.3,5.2c-4.3,4.2-10.8,4.4-15.3,0.7c-4.3-3.6-5.4-9.5-2.5-14.6
		c0.9-1.5,2-2.9,3.2-4.3C90,346.9,149.4,270.8,208.9,194.7c8-10.3,12.6-10.8,22.9-2.8c24.2,18.9,48.4,37.8,72.6,56.7
		C305.9,249.8,307.5,250.9,309.5,252.4z"/>
	<path class="st0" d="M195,287.2c55.1,41.5,109.8,82.7,164.9,124.2c27.7-36.8,55-73,82.8-109.9c-8.5-6.4-16.6-12.7-24.8-18.7
		c-4.8-3.5-8.6-7.5-6.8-14c1.8-6.3,6.6-8.2,12.7-9c20-2.6,39.9-5.6,59.9-8.4c7.7-1.1,13.1,2.8,14.3,10.6c3,20.8,5.9,41.7,8.8,62.5
		c0.7,5.2-0.9,9.4-5.4,12.1c-4.5,2.8-9,2.3-13.2-0.8c-9-6.7-17.9-13.4-27.2-20.4c-17.1,22.7-34,45-50.8,67.4
		c-12.5,16.6-25,33.3-37.6,49.9c-5.5,7.3-11.5,8.5-18.5,3.2c-57.1-43-114.2-86-171.3-129c-0.5-0.4-0.9-1-1.8-2
		C185.6,299.2,190.1,293.5,195,287.2z"/>
	<path class="st0" d="M71.1,222.6c-16.1,21.4-31.8,42.1-47.4,62.8c-3.3,4.3-7.6,7.3-12.6,5.3c-3.4-1.4-6.8-5-8.3-8.4
		c-1.1-2.4,0-6.9,1.8-9.2c18.1-24.5,36.4-48.8,54.9-73c4.5-5.8,10.7-6.8,16.5-2.4c21.2,15.7,42.2,31.7,64,48.1
		c-4.7,6-9.1,11.7-14.1,18.1C107.6,250.1,89.6,236.5,71.1,222.6z"/>
</g>
</svg>
